<?xml version="1.0" encoding="UTF-8"?> <svg xmlns="http://www.w3.org/2000/svg" width="176" height="40" viewBox="0 0 176 40" fill="none"><g clip-path="url(#clip0_345_531)"><path d="M153.34 14.3462L151.848 12.0933L151.999 12.1985C152.113 12.2968 152.259 12.3483 152.409 12.3431C152.559 12.3379 152.702 12.2763 152.809 12.1703C152.917 12.0643 152.982 11.9214 152.991 11.7695C153.001 11.6176 152.955 11.4674 152.861 11.3482L151.067 8.65258C151.427 7.94383 151.701 7.19319 151.882 6.41721C151.654 7.37272 149.911 7.49545 149.221 6.79415L145.627 3.13866C143.651 1.13559 141.145 0.280894 139.519 0.898908C139.461 0.920377 139.408 0.954171 139.364 0.998019C139.321 1.04187 139.286 1.09475 139.264 1.15313C138.656 2.80993 139.502 5.3302 141.473 7.33327L145.066 10.9888C145.748 11.6857 145.571 13.474 144.635 13.7107C145.42 13.5251 146.179 13.241 146.895 12.8647L149.544 14.6837C149.66 14.7643 149.8 14.8013 149.94 14.7883C150.08 14.7753 150.211 14.713 150.311 14.6122C150.411 14.5115 150.473 14.3786 150.486 14.2364C150.5 14.0942 150.464 13.9517 150.385 13.8334L150.282 13.6756L152.495 15.2009C152.611 15.3014 152.761 15.3533 152.914 15.3459C153.067 15.3386 153.211 15.2726 153.318 15.1613C153.425 15.0501 153.486 14.9018 153.489 14.7464C153.493 14.5911 153.438 14.4402 153.336 14.3243L153.34 14.3462ZM148.423 10.1998C147.806 10.8261 147.097 11.3511 146.322 11.7558C146.325 11.5227 146.264 11.2933 146.145 11.094C143.945 8.95939 142.198 7.25438 141.279 6.13231C139.782 4.30456 139.497 2.77487 139.609 2.2226C139.635 2.08234 139.653 3.25701 141.654 5.60195C142.702 6.82922 144.639 8.72709 146.749 10.7214C147.838 10.0003 148.729 9.00931 149.337 7.84171C149.432 7.91025 149.54 7.95841 149.655 7.98327C149.769 8.00813 149.887 8.00918 150.001 7.98635C149.597 8.80634 149.064 9.55394 148.423 10.1998Z" fill="#181818"></path><path d="M149.601 9.81422C149.873 9.46044 150.12 9.08688 150.339 8.69653L152.336 11.6902L149.601 9.81422ZM148.039 11.3965C147.691 11.6733 147.324 11.9238 146.939 12.146L149.89 14.171L148.039 11.3965ZM148.039 11.3965L152.832 14.6882L149.597 9.8186C149.37 10.112 149.127 10.3916 148.868 10.6558C148.61 10.92 148.336 11.1674 148.048 11.3965H148.039Z" fill="#E00B24"></path><path d="M146.759 10.7167C144.649 8.72241 142.713 6.82453 141.664 5.59727C139.663 3.25232 139.645 2.0908 139.62 2.21791C139.507 2.77018 139.792 4.29988 141.289 6.12762C142.208 7.24969 143.955 8.95471 146.155 11.0893C146.274 11.2886 146.335 11.518 146.332 11.7511C147.107 11.3464 147.816 10.8214 148.433 10.1951C149.071 9.54727 149.601 8.79821 150.003 7.97728C149.888 8.00011 149.77 7.99906 149.656 7.9742C149.542 7.94934 149.434 7.90118 149.339 7.83264C148.731 9.00024 147.84 9.99127 146.75 10.7123L146.759 10.7167Z" fill="white"></path><path d="M34.3535 39.6671L33.1543 35.4374H26.9553L25.7474 39.6671H20.834L27.2055 20.4078H33.1025L39.474 39.6671H34.3535ZM30.0052 24.4929L27.8871 31.9134H32.2009L30.1087 24.4929H30.0052Z" fill="#181818"></path><path d="M48.8389 40.0002C45.9832 40.0002 43.7342 39.1236 42.0921 37.3704C40.45 35.6171 39.6289 33.1699 39.6289 30.0287C39.6289 26.908 40.4514 24.468 42.0964 22.709C43.7414 20.9499 45.9889 20.0733 48.8389 20.0791C50.3316 20.0549 51.8092 20.3866 53.1528 21.0478C54.4 21.6544 55.4606 22.5955 56.2199 23.7697C56.9852 24.9596 57.4026 26.3457 57.4235 27.767H52.7775C52.7073 26.7291 52.2581 25.7552 51.5178 25.0364C50.7924 24.3488 49.8307 23.9774 48.8389 24.002C48.2241 23.983 47.6144 24.1211 47.0657 24.4037C46.517 24.6863 46.0469 25.1043 45.6985 25.6193C44.9277 26.6947 44.5424 28.1557 44.5424 30.0024C44.5424 31.8492 44.9277 33.3321 45.6985 34.4512C46.049 34.9659 46.5209 35.3832 47.071 35.6649C47.6211 35.9467 48.2318 36.084 48.8476 36.0642C49.8266 36.0954 50.7798 35.7422 51.5092 35.078C52.2476 34.372 52.7077 33.4169 52.8034 32.3912H57.4407C57.4215 33.4402 57.1844 34.4732 56.7451 35.4226C56.3057 36.372 55.674 37.2165 54.8912 37.9007C53.3095 39.3004 51.2921 40.0002 48.8389 40.0002Z" fill="#181818"></path><path d="M71.1801 39.6671L69.9852 35.4374H63.7776L62.5525 39.6671H57.6562L64.0278 20.4078H69.9248L76.2963 39.6671H71.1801ZM66.8231 24.4929L64.7094 31.9134H69.0232L66.9224 24.4929H66.8231Z" fill="#181818"></path><path d="M78.1055 20.4078H85.8057C88.6815 20.4078 90.9161 21.2304 92.5093 22.8755C94.1026 24.5206 94.9007 26.87 94.9035 29.9235C94.9035 32.9975 94.104 35.3892 92.505 37.0986C90.906 38.808 88.6729 39.6642 85.8057 39.6671H78.1055V20.4078ZM82.9283 24.3526V35.7179H85.1715C86.7504 35.7179 87.9453 35.2314 88.7649 34.2627C89.5846 33.2941 89.9944 31.8521 89.9944 29.9367C89.9944 28.1396 89.5745 26.7604 88.7347 25.799C87.895 24.8377 86.7072 24.357 85.1715 24.357L82.9283 24.3526Z" fill="#181818"></path><path d="M110.223 35.7179V39.6627H97.2344V20.4078H110.223V24.3526H102.053V28.1834H109.74V31.7863H102.053V35.7311L110.223 35.7179Z" fill="#181818"></path><path d="M133.756 39.6671H129.511V27.6399H129.416L124.722 39.4742H121.966L117.29 27.6399H117.186V39.6671H112.941V20.4078H118.511L123.295 32.7813H123.398L128.178 20.4078H133.751L133.756 39.6671Z" fill="#181818"></path><path d="M146.914 39.6671H142.091V33.0486L135.564 20.4078H140.741L144.511 28.4157H144.606L148.364 20.4078H153.441L146.914 33.0486V39.6671Z" fill="#181818"></path><path d="M30.5789 5.81226L28.1287 15.0474H24.6388L20.834 0.254517H24.6604L26.6275 10.2523H26.7051L29.1381 0.254517H32.106L34.5347 10.2523H34.6167L36.5838 0.254517H40.4058L36.6054 15.0474H33.1112L30.6609 5.81226H30.5789Z" fill="#E00B24"></path><path d="M51.8959 12.0143V15.0474H41.918V0.254517H51.8959V3.29199H45.6236V6.23304H51.5249V8.99876H45.6236V12.0143H51.8959Z" fill="#E00B24"></path><path d="M60.9363 15.0474H53.9824V0.254517H60.7551C62.1931 0.254517 63.3161 0.583248 64.1242 1.24071C64.5237 1.56125 64.8427 1.97351 65.0549 2.44363C65.2671 2.91375 65.3666 3.42832 65.3451 3.94507C65.3546 4.73683 65.0624 5.50166 64.5297 6.07963C64.002 6.67475 63.2805 7.05611 62.4979 7.15349V7.23676C63.4395 7.26366 64.3357 7.6539 65.0043 8.32815C65.3286 8.64488 65.5846 9.02659 65.7562 9.44911C65.9277 9.87163 66.011 10.3257 66.0008 10.7827C66.0239 11.3736 65.9117 11.9619 65.6729 12.5011C65.4341 13.0404 65.0752 13.516 64.6247 13.8903C63.7187 14.6617 62.4893 15.0474 60.9363 15.0474ZM57.688 2.91943V6.28564H59.5947C60.1573 6.31958 60.7143 6.1572 61.1736 5.82541C61.3602 5.67788 61.5092 5.48708 61.6083 5.26897C61.7074 5.05087 61.7536 4.81182 61.743 4.57185C61.7547 4.3422 61.7136 4.11293 61.623 3.9022C61.5324 3.69147 61.3948 3.50507 61.221 3.35774C60.8047 3.04422 60.2933 2.8891 59.7759 2.91943H57.688ZM57.688 12.3825H59.8838C60.5099 12.4236 61.1315 12.2491 61.6481 11.8872C61.8509 11.7127 62.0114 11.493 62.1169 11.2451C62.2224 10.9973 62.2701 10.728 62.2564 10.4583C62.2705 10.1913 62.2211 9.92479 62.1122 9.68137C62.0033 9.43794 61.8382 9.22483 61.6308 9.06013C61.1118 8.70405 60.4917 8.53153 59.8665 8.56922H57.688V12.3825Z" fill="#E00B24"></path><path d="M71.0954 15.0474H67.584V0.254517H70.539L76.7121 8.8585H76.7854V0.254517H80.2969V15.0474H77.3721L71.1774 6.36453H71.0998L71.0954 15.0474Z" fill="#181818"></path><path d="M92.0771 15.0474L91.1582 11.7996H86.413L85.4855 15.0474H81.7109L86.5899 0.254517H91.1194L96.0113 15.0474H92.0771ZM88.7382 3.3928L87.1162 9.09081H90.4335L88.8201 3.3928H88.7382Z" fill="#181818"></path><path d="M100.647 0.254517V9.40201C100.604 10.1394 100.844 10.8652 101.316 11.427C101.844 11.8903 102.518 12.1452 103.216 12.1452C103.914 12.1452 104.588 11.8903 105.116 11.427C105.588 10.8652 105.828 10.1394 105.785 9.40201V0.254517H109.486V9.80087C109.513 10.5561 109.372 11.3078 109.073 11.9999C108.774 12.6921 108.326 13.3068 107.761 13.7982C106.61 14.8034 105.093 15.306 103.21 15.306C101.326 15.306 99.8089 14.8034 98.6585 13.7982C98.0932 13.307 97.6444 12.6923 97.3456 12.0001C97.0469 11.308 96.9058 10.5562 96.933 9.80087V0.254517H100.647Z" fill="#181818"></path><path d="M118.754 15.0474H115.061V3.29199H111.045V0.254517H122.77V3.29199H118.754V15.0474Z" fill="#181818"></path><path d="M123.87 10.7652H127.39C127.431 11.0197 127.527 11.2616 127.673 11.4727C127.819 11.6837 128.01 11.8585 128.231 11.9837C128.769 12.311 129.387 12.4753 130.013 12.4571C130.618 12.4845 131.218 12.3322 131.739 12.0188C131.933 11.9067 132.096 11.7452 132.211 11.55C132.326 11.3549 132.389 11.1328 132.394 10.9055C132.4 10.7148 132.356 10.526 132.266 10.3582C132.177 10.1904 132.045 10.0496 131.885 9.94999C131.338 9.64332 130.743 9.43707 130.125 9.34074L128.218 8.95942C127.086 8.79803 126.031 8.28344 125.199 7.4867C124.854 7.11802 124.585 6.68306 124.408 6.20737C124.231 5.73167 124.149 5.22482 124.168 4.71659C124.15 4.06085 124.286 3.41019 124.565 2.81865C124.844 2.22711 125.258 1.71174 125.773 1.31532C126.973 0.403928 128.446 -0.060319 129.944 0.000399433C131.747 0.000399433 133.164 0.412409 134.193 1.23643C134.696 1.62713 135.102 2.13267 135.377 2.71214C135.652 3.29161 135.789 3.92874 135.776 4.57195H132.364C132.354 4.31951 132.284 4.07326 132.161 3.8537C132.038 3.63413 131.865 3.4476 131.657 3.30963C131.156 2.99295 130.572 2.83996 129.983 2.87132C129.434 2.84353 128.891 2.98734 128.426 3.28333C128.242 3.39642 128.091 3.55624 127.988 3.74692C127.884 3.9376 127.831 4.15252 127.835 4.37033C127.832 4.56052 127.877 4.74819 127.967 4.91546C128.056 5.08273 128.185 5.22402 128.344 5.32584C128.853 5.63428 129.417 5.83828 130.004 5.92632L131.89 6.28574C133.327 6.57794 134.38 7.06008 135.047 7.73215C135.392 8.10149 135.66 8.53834 135.833 9.01609C136.007 9.49383 136.083 10.0025 136.057 10.511C136.078 11.1887 135.938 11.8616 135.648 12.4722C135.358 13.0828 134.927 13.613 134.392 14.0175C133.284 14.8941 131.792 15.3324 129.914 15.3324C128.036 15.3324 126.575 14.9233 125.531 14.1052C125.006 13.7297 124.579 13.2286 124.29 12.6462C124 12.0637 123.856 11.4177 123.87 10.7652Z" fill="#181818"></path><path d="M169.647 24.6203C169.556 24.182 169.47 23.6955 169.353 23.2265C169.215 22.6874 169.068 22.1526 168.892 21.631C168.701 20.9995 168.358 20.4261 167.895 19.9625C167.432 19.4988 166.863 19.1594 166.239 18.9749C165.328 18.6856 164.392 18.4884 163.469 18.2517L163.279 18.2078C164.073 18.0106 164.862 17.844 165.635 17.6205C166.097 17.4876 166.546 17.3115 166.976 17.0945C167.446 16.8564 167.861 16.5202 168.194 16.1078C168.527 15.6953 168.771 15.2161 168.909 14.7014C169.189 13.7809 169.383 12.8298 169.616 11.8874C169.616 11.8348 169.647 11.7779 169.668 11.6946C169.832 12.4222 169.97 13.1191 170.151 13.8072C170.267 14.2545 170.411 14.6938 170.583 15.1222C170.807 15.6815 171.155 16.181 171.599 16.5822C172.043 16.9835 172.572 17.2757 173.145 17.4364C174.085 17.7389 175.052 17.9624 175.988 18.2166C175.759 18.2648 175.487 18.3043 175.22 18.3788C174.439 18.5936 173.65 18.7776 172.886 19.0494C172.291 19.2527 171.754 19.6012 171.323 20.0642C170.891 20.5273 170.578 21.0909 170.41 21.7055C170.121 22.6742 169.901 23.6692 169.647 24.6203Z" fill="#181818"></path><path d="M6.36722 24.6203C6.27662 24.182 6.19035 23.6955 6.07387 23.2265C5.93583 22.6874 5.78916 22.1526 5.61229 21.631C5.42181 20.9993 5.07955 20.4258 4.61639 19.9621C4.15323 19.4983 3.58374 19.1591 2.95929 18.9749C2.04907 18.6856 1.11297 18.4884 0.189809 18.2517L0 18.2078C0.798059 18.0106 1.58318 17.844 2.35967 17.6205C2.82023 17.4868 3.26785 17.3108 3.69695 17.0945C4.16681 16.8564 4.58186 16.5202 4.91491 16.1078C5.24796 15.6953 5.49149 15.2161 5.62955 14.7014C5.91426 13.7809 6.10839 12.8298 6.34133 11.8874C6.34133 11.8348 6.36722 11.7779 6.38878 11.6946C6.55271 12.4222 6.69507 13.1191 6.87193 13.8072C6.9876 14.2545 7.1317 14.6938 7.30332 15.1222C7.52757 15.6815 7.87523 16.181 8.31949 16.5822C8.76376 16.9835 9.29276 17.2757 9.86573 17.4364C10.8105 17.7389 11.7768 17.9624 12.7085 18.2166C12.4799 18.2648 12.2081 18.3043 11.9407 18.3788C11.1599 18.5936 10.3705 18.7776 9.61122 19.0494C9.01523 19.2518 8.47733 19.5998 8.0448 20.063C7.61228 20.5262 7.2984 21.0902 7.13076 21.7055C6.84605 22.6742 6.62173 23.6692 6.36722 24.6203Z" fill="#181818"></path></g><defs><clipPath id="clip0_345_531"><rect width="176" height="40" fill="white"></rect></clipPath></defs></svg> 