<svg width="40" height="40" viewBox="0 0 40 40" fill="none" xmlns="http://www.w3.org/2000/svg">
<g clip-path="url(#clip0_45_373)">
<path d="M20 10C14.486 10 10 14.486 10 20V24.143C10 25.167 10.897 26 12 26H13C13.2652 26 13.5196 25.8946 13.7071 25.7071C13.8946 25.5196 14 25.2652 14 25V19.857C14 19.5918 13.8946 19.3374 13.7071 19.1499C13.5196 18.9624 13.2652 18.857 13 18.857H12.092C12.648 14.987 15.978 12 20 12C24.022 12 27.352 14.987 27.908 18.857H27C26.7348 18.857 26.4804 18.9624 26.2929 19.1499C26.1054 19.3374 26 19.5918 26 19.857V26C26 27.103 25.103 28 24 28H22V27H18V30H24C26.206 30 28 28.206 28 26C29.103 26 30 25.167 30 24.143V20C30 14.486 25.514 10 20 10Z" fill="#181818"/>
<circle cx="20" cy="20" r="19" stroke="#181818" stroke-width="2"/>
</g>
<defs>
<clipPath id="clip0_45_373">
<rect width="40" height="40" fill="white"/>
</clipPath>
</defs>
</svg>
